<?xml version="1.0" encoding="utf-8"?>
<!-- Generator: Adobe Illustrator 25.0.0, SVG Export Plug-In . SVG Version: 6.00 Build 0)  -->
<svg version="1.1" xmlns="http://www.w3.org/2000/svg" xmlns:xlink="http://www.w3.org/1999/xlink" x="0px" y="0px"
	 viewBox="0 0 1307 723" style="enable-background:new 0 0 1307 723;" xml:space="preserve">
<style type="text/css">
	.st0{opacity:0.96;clip-path:url(#SVGID_2_);fill:none;stroke:#000000;stroke-miterlimit:10;enable-background:new    ;}
	.st1{fill:#FFFFFF;}
	.st2{fill:none;stroke:#000000;stroke-width:1.5;stroke-miterlimit:10;}
</style>
<g id="Tec">
	<path d="M733.2,229.6v25.4H630.7v263.2h-25.4V255.1H501.9v-25.4H733.2z"/>
	<path d="M820.8,518.3V360.2c-0.6,0-2.5-0.1-5.7-0.4c-3.2-0.3-7.2-1-11.8-2.2c-4.7-1.2-9.5-2.8-14.5-5c-5-2.2-9.5-5.2-13.6-9
		l18.4-17.5c2.9,2.3,6.6,4.3,10.9,5.9c4.4,1.6,9.8,2.6,16.2,2.8V229.6h204.1v25.4H846.2v79.7h154.2v25.4H846.2v132.7h182.2v25.4
		H820.8z"/>
	<path d="M1129.5,282.3c-6.6-5.4-13.3-10.8-20.3-16.2c12.5-11.8,26.9-21.3,43.3-28.3c18-7.7,37.2-11.6,57.6-11.6
		c15.5,0,30.2,2.4,44.3,7.2c14,4.8,28.9,12.8,44.7,23.9l-19.7,15.4c-11.4-8.2-22.5-13.7-33.3-16.7c-10.8-2.9-22.8-4.4-35.9-4.4
		c-16.9,0-32.8,3.2-47.5,9.7C1150.3,266.6,1139.2,273.6,1129.5,282.3z"/>
	<path d="M1307,483.7c-7.1,5.9-14.3,11-21.4,15.5c-5.2,3.3-10.5,6.2-15.7,8.7c-2.8,1.4-5.7,2.7-8.6,3.8c-15.4,6.2-32.4,9.2-51.1,9.2
		c-20.4,0-39.6-3.9-57.6-11.6c-18-7.7-33.6-18.3-46.9-31.8c-13.3-13.4-23.7-29-31.3-46.9c-7.6-17.8-11.4-36.6-11.4-56.5
		c0-20.4,3.8-39.6,11.4-57.6c6.9-16.3,16.2-30.8,27.8-43.4c6.8,5.4,13.5,10.8,19.9,16.2c-10,10.5-18,22.8-24,36.9
		c-6.4,15.1-9.7,31.1-9.7,48.1c0,16.4,3.2,32,9.7,46.7c6.4,14.8,15.1,27.6,26.1,38.6c10.9,11,23.8,19.7,38.6,26.1
		c14.7,6.5,30.6,9.7,47.5,9.7c7.6,0,14.7-0.5,21.3-1.5c6.6-1,12.9-2.6,19-4.8c4.9-1.7,9.7-4,14.4-6.7c1.2-0.7,2.4-1.5,3.6-2.2
		c3.3-2.2,6.7-4.5,10.2-7.1c2.7-2,5.4-4.2,8.2-6.5L1307,483.7z"/>
</g>
<g id="Anneau">
	<g>
		<defs>
			<path id="SVGID_1_" d="M1250.9,567.1c-51,149.9-362.8,179.4-696.3,65.9C221,519.4-8,305.9,43,155.9C94,6,405.8-23.5,739.3,90.1
				c137.9,46.9,258,111,347.7,180.6c6.6,5.1,13,10.2,19.3,15.4c72.2,59.5,122,122.4,141.9,181.6c2.8,8.4,5,16.6,6.6,24.8
				C1260,518.5,1258.9,543.6,1250.9,567.1z"/>
		</defs>
		<clipPath id="SVGID_2_">
			<use xlink:href="#SVGID_1_"  style="overflow:visible;"/>
		</clipPath>
		<path class="st0" d="M260.1-108.1c15.8-1.9,30.3,9.5,32,25.4c3.1,25.6-26.8,41.6-46.7,25.8c-6.3,5.2-7.3,5.8-48.6,37.6
			c5.2,7,4.6,13.9,0.6,20.9C286.6,84,278.5,77,283.2,80.9c11.3-3.1,23.3,0.1,31.2,10.2c24.6-9.5,14.3-1.2,34.2-29.3
			c-3.3-6.1-3.7-15.3,4-22.1c-5.7-26.7-11.4-53.4-17.3-80c-34.3-3.9-33.9-53.5-0.7-57.3c15.9-2.3,31.3,9.4,32.6,26.2
			c1.4,15.3-9.7,30.4-28.3,31.4c5.6,25.9,11.3,51.8,16.8,77.8c7.4-2.5,13.1-0.8,18.2,4.5c0.5-0.2,85-36.7,85.5-36.9
			c0.8-2.7,1.2-5.6,2.8-8c3.5-5.7,10.8-8.5,17.2-6.8c4.2-4.1,8.2-8.5,12.5-12.6c-17.9-13.1-14.9-40.1,4-49.3
			c17.3-8.8,38.9,2.1,41.5,21.7C541-26.1,515.2-8.2,493.9-21c-4.1,4-7.9,8.3-12,12.3c10.5,5.6,11.4,18.1,5.5,25.9
			c14.7,13.3,97.4,87.5,98.7,88.7c6.2-16,23.9-23.1,39.6-16.2c-4.4-22-23-113.8-23-113.8c-38.7,1.3-42-52-7.3-57.4
			c15.8-2.8,31.6,8.4,33.5,25.3c32.1-0.1,16.4,0.2,52.1-0.3c8.5-28.2,47.3-27.3,55.4-0.9c5.3,16.3-4.8,33.9-22.1,37.2
			c-0.5,4.8-0.7,64.2-1.2,67.8c9.1-0.1,11.3,4.3,13.5,5.7c0.1,0,198.1-54.9,209.2-57.8c-1-2.6-1.6-5.4-1.6-8.2
			C908.4-23.1,882.7-33.6,857-44c-24.8,23.1-61.8-6.9-45.3-35.2c8.3-14.6,27.6-18.8,41.3-9.5c13.2,8.8,17.2,27.5,6.8,41.6
			c25,10.1,50,20.1,74.9,30.3c7-20.4,35.1-13,30.3,9.8c2.9,0.6,5.7,1.1,8.6,1.8c5-16.1,25-16.7,30.5-0.6c7.4-2,14.8-3.9,22.2-5.9
			c0.1-3.9,1.2-7.8,3.5-11c-5-8.8-10-17.6-15-26.4c-30.2,0-40-40.3-14.1-54.3c15-8.3,34.5-1.5,40.8,14.7
			c6.6,16.5-3.2,35.9-22.3,39.3c4.5,7.9,9.1,15.8,13.5,23.7c8.1-5.4,17-3.3,22.2,3.8c8.3-8.9,16.2-18.1,24.5-26.9
			c-17.2-20.7-0.5-50.7,25.1-47.7c16.2,1.8,27.4,16.6,25.4,32.3c-2.8,23.3-31.3,34-49.1,17c-8.1,9.3-16.5,18.3-24.7,27.5
			c1.3,3,1.4,6.2,1.8,9.4c14,8,88.1,49.2,92.8,51.8c9.1-9.6,23.7-5,26.8,7.1c13.9,2,27.8,3.9,41.7,5.9c0.5-17.7,17.5-31.1,35.2-27
			c18.7,4,28,25.1,19.4,41.5c-12.6,24.8-51.4,19-54.6-11.1c-13.7-1.8-27.5-3.8-41.2-5.7c-0.4,14.5-13.1,20.6-23.6,15
			c-7.1,30.5-14.5,60.9-21.6,91.4c22.1,6.7,27.6,34.8,11,49.5c5.6,4.8,11.3,9.6,16.8,14.5c12.5-10,29.3,0.1,25.5,17.6
			c15.6,4,31.3,7.9,46.9,12c4.5-18.9,24.7-27.7,40.8-19.8c15.1,7.1,20.8,26,12.6,40.4c-6.6,11.9-21.7,18.3-36.7,12.2
			c-20.1,16.8-40.3,33.4-60.5,50.1c5.1,4.7,6.2,8.4,6.4,14.7c18.8-2.3,37.6-5.1,56.4-7.3c-5.9-29.5,30-46.7,49.4-25.9
			c12.7,13.3,9.5,35.4-6.1,44.6c-15,9.2-36.1,2.8-42.4-15.7c-19.3,2.5-38.5,5.2-57.8,7.6c-3.2,9.4-11,13.1-18.1,11.7
			c-1.1,2.8-2.2,5.7-3.1,8.6c0.5,1.4,12.5,3.5,10.8,19.6c12,0.9,23.9,1.5,35.9,2.4c0-29.2,38-39.8,53.2-15.9
			c10.1,15.5,3.1,37.5-15.9,43.3c-16.9,5.2-35-6.2-37.1-24.3c-34.8-2-35.2-2.7-37.1-2.2c-1.2,1.7-2.1,3.5-3.5,4.9
			c-4.4,4.5-14.2,8.2-23.5-1.9c-23.7,12-18.9,8.9-20.5,12.7c-4,11.7-16,10.2-17.4,10.5c-1.2,2.4-2.2,4.9-3.4,7.3
			c10.7,5.7,11.7,17.9,6.1,25.7c7.7,10.5,15.5,21,23.2,31.4c7-4.1,14.5-3.4,20.4,2.8c2.8-1.1,68.3-24.3,76.3-27.1
			c-1.7-20.5,16.4-35.5,35.3-31.2c18.6,4.1,27.8,24.9,19.3,41.3c-11.6,23.2-47.8,20.4-54.1-7.2c-26.4,9.4-71.5,25.4-74.9,26.7
			c1.8,3.3,2.4,7.2,2.2,10.9c23.4,12.5,46.8,25.2,70.2,37.7c14.8-11.2,36.6-5.8,44,11.2c9.5,20.9-8.5,44.1-31.2,40.3
			c-3.3,2.1-4.5,3.8-25.4,20c6.2,12,0.4,25.3-14.3,25.6c3,15.8,5.5,31.6,8.4,47.5c14.9-3.2,24.6,14.5,15.7,26.6
			c4.6,3.4,9,7,13.5,10.5c19.4-24.8,59.6-5.3,50.8,25.5c-3.9,14.2-18.4,22.6-31.2,20.7c-19.2-1.9-32-23.2-21.9-42.7
			c-4.8-3.7-9.4-7.5-14.2-11.2c-10.6,7.5-23.2,0.4-24.6-10.1c-2.1,0.6-50.6,1.7-54.8,1.7c-4.5,13.3-20.3,14.7-27.2,5.5
			c-11.4,5.1-22.6,10.4-34,15.4c6.5,16.3-8.5,27.8-20.2,23.1c0,0.7,0,1.3,0.1,2c6.2,3.2,11.3,8.6,13.8,15.2
			c14.1,35.8-39.8,57-54.1,20.3c-2.2-6.1-2-12.9-0.2-19.1c-11.6-3.5-23.1-7-34.7-10.5c-5.5,11.4-18.4,12.5-25.5,5.1
			c-2.2-2.1-3.2-5-4.3-7.7c-13.4,2.3-48,7.4-53.7,8.5c-0.8,1.7-1,3.7-1.5,5.5c8,3.2,15.8,6.8,23.8,10c30.6-23.7,64.8,18,39.3,42.6
			c-24.3,24.4-65.7-8-42.3-39.5c-7.6-3.3-15.2-6.5-22.8-9.7c-8.6,10.2-25.4,8.4-28.2-10c-1.5-0.6-16.3-4.6-17.9-4.9
			c-2,0.7-3.8,1.8-5.9,2.1c-1.7,0.2-1.5,0.4-10.7,12.5c26.6,20.8,2.8,62-27.7,50.1c-19.7-7.2-24.8-32.8-10.3-47.3
			c8.1-8.4,22.3-12,36-4.2c2.7-3.6,5.6-7.1,8.3-10.7c-22.1-4.4-16.2-35.1,3.6-32.9c0.5-7.1,0.4-32.9,0.2-34.8
			c-3.7-9.5-0.9-11.2-1.2-14.5c-0.9-1-29.8-28.2-31.1-29.2c-10.5,4.3-18.9,0.1-22.5-10.6c-9.6,1.3-70.6,6.6-96.4,9.4
			c3.8,14.2-2.5,27.9-14.9,34.1c-4.6,3.5-5.3-10.7,1.4,68.7c18.6-1,32.2,14.5,30.7,31.3c-0.9,13.6-11.8,24.6-25.1,26.2
			c-36.1,5-46.4-49.4-8.8-57.1c-5.2-68.3-4.8-64.5-4.8-66.6c-3,0.2-6,0.9-9,0.4c-19.9-1.7-31.8-22.5-23.7-40.9
			c-8.6-1.6-17.2-3.4-25.9-5c-3.9,16.3-21.7,17.6-29.2,5.6c-4.9,2.8-9.8,5.6-14.8,8.1c-0.4,11.3-8.9,16.9-16.4,16.6
			c-1.6-0.3-2.6,1.1-3.6,2.1c-3.3,3.8-31.4,33.6-32,34.1c10.6,8.2,8.6,20.4,2.6,26.4c6.3,9,12.5,18.1,18.8,27.1
			c27.5-11.9,52.5,19.3,35.8,43c-10.3,14.8-31.9,16.4-44.4,3.6c-12.3-12.6-10.8-34.1,4.9-44.5c-6.1-8.9-12.3-17.8-18.4-26.7
			c-9.7,4.6-19-0.1-22.1-8.5c-0.9-2.3-1-4.9-1.2-7.3c-3.9,0.7-73.2,12.2-80.3,13.3c1.9,3.8,2.4,8.3,1.5,12.4
			c-4.5,18.1-28.9,14.6-30.3-0.8c0-1.2-3.1-12.8,8.9-18.6c-14.1-25.2-28.4-50.2-42.5-75.5c-3.9,1.3-8.1,1.7-12,0.1
			c-12.3,8.7-49.9,33.8-80.1,54.3c23,18.9,6.7,54.9-21,51.4c-16.8-1.3-32.5-19.1-22.3-42.7c-103-37.8-91.7-34.4-96-34
			c-8.8,1.2-13.1-5.6-14.8-6.8c-4.2,1.4-8.1,3.7-12.2,5.4c7.9,10.3,4,24.9-10.3,27.7c14.1,18.3,28.1,36.8,42.1,55.1
			c28.4-15,56.3,20.6,35.7,44.3c-11.5,13.6-33.2,13.5-44.5-0.7c-9.8-12.1-8.4-30.9,5.3-41.4c-1.5-2-42.5-56-44.3-57.8
			c-4.5-2.4-10.3-4.6-11.5-15.5c-6.1,0.8-12.1,1.7-18.2,2.5c1.2,12.8-9.1,21-19.4,18.5c0,0-18,19.5-18,19.5
			c18.4,24.3-7.6,56.4-34.5,44.3c-18.3-7.9-22.7-31.9-9.5-46c10.8-11.9,30.4-12.9,42.6-0.1c2.9-2.9,11.9-13,17.2-18.5
			c-10.4-5.6-13.5-18.2-3.6-28.5c-14.9-8-29.7-16.4-44.6-24.5c-16.8,23.8-53.5,11.7-53-16.4c-0.1-20.8,21.9-34.8,40.9-26.1
			c14.5,6.5,21.1,24,14.1,38.9c53.4,29.7,45.2,25.7,49.3,25.2c6.2-1.5,14.1,1.3,18,10.6c6.4-1,12.7-1.8,19.1-2.6
			c2.2-12,14.4-18.1,25-10.7c4.4-2,8.8-4.1,13.3-6c-4.6-14,5.3-26.4,19.8-22.4c16.4-19.1,32.5-38.3,48.9-57.3
			c-9.7-7-9.3-17.6-4.9-24.5c-47.9-17.5-95.9-34.9-143.8-52.4c-5.5,9.3-17,10.8-24.6,3.8C6.1,520.3-0.4,524-7,527.6
			c7.3,17.5-3.3,36.6-21,39.9c-18.5,3.7-35.1-11.1-34.4-29.1c0.4-29.3,40.1-38.7,54.2-13.3c6.4-3.5,12.8-6.9,19.1-10.5
			c-7-10.7-1-25.5,11.8-26.4C8.2,351.6,11.1,367.6,7.4,364.8c-4.1-2-6.6-6.2-7.9-10.5c-4.6,0.8-9.1,1.7-13.6,2.5
			c-10.1,34.2-58.6,25.2-57-8.5c0.5-15.5,13.8-27.6,28.5-27.5c17.2-0.5,31.5,14.9,29,32.9C2,351-1.6,351.9-0.9,349.2
			c0.6-14.7,19.7-22,29.2-7.5c4.6-2.1,9.4-4,14.1-6c-14.2-15.8-8.8-41.3,13.9-48c-42.5-71-38-63.5-40.7-63.5
			c-22.9,1.7-38-22.2-28.1-41.7c10.1-21,42.9-22.6,53.2,3.2c57.4-21.5,114.8-43.2,172.2-64.6c-1.3-3.5-1.6-7.3-1.1-11
			c-0.5-0.1-57.7-7.9-66.6-8.9c-4.1,15.6-24.9,18.5-30.9-0.7c-9.6,1.6-77.8,10.5-104.3,14.2c-4.6,37.2-59.7,31.9-57.6-4.6
			c0.8-21,23.8-34.1,42.6-24c6.8-7.5,13.5-14.9,20.3-22.3C4.7,49.6,18,31.2,33.8,37.9c4.2-7.1,8.6-14.2,12.8-21.3
			c-2.3-3.3-3.4-7.3-3.2-11.3c-0.1-2.1,5.5,1.4-43.9-27C-21.9-5-52.7-23.4-47-50.4c2.8-13.5,15.4-23.4,30-22.6
			C6.3-71.6,19.2-44.1,2.7-24.7c13.9,8.2,28,16.1,41.9,24.4C50-12,63.9-12.8,70.6-4.7c0.8,0.9,1.4,1.8,2.2,2.7
			c60.5-24.3,51.7-19.8,54.3-24.5c-1.3-2.4-2.5-4.8-3.8-7.1C84.9-21.5,69-70.5,98.2-85.7c19.6-10.8,43.5,4.2,42.7,25.8
			c0.2,9.9-5.6,19.3-13.9,24.5c1,1.8,2,3.6,2.9,5.4c10.1-9,26.4-3.1,26.5,13.1c4.5,0.9,9.1,1.7,13.7,2.6c4.6-11.3,16.9-13.7,25-6.9
			c16.2-12.4,32.2-25,48.5-37.2C225.4-76.6,236.9-105.7,260.1-108.1 M258.4-98.4c-18.6,5.6-20,31.2,0,37.7
			c23.2,5.5,34.7-26.3,13.7-36.3C267.9-99.2,262.9-99.2,258.4-98.4 M1009.5-96.9c-22,6.6-18.1,39,7.1,38.4
			C1043.8-62.9,1037.4-102.5,1009.5-96.9 M333.8-88.2c-20.4,5.3-19.6,33.8,1.2,38.2c8.3,2.3,25-4.8,22.6-23.1
			C355.7-81.7,347.2-90.6,333.8-88.2 M1096.3-86.6c-8.8,2.6-15.3,10.2-14.3,22.1c2.1,12.8,17,20.2,27.7,14.4
			C1130.7-59.8,1119.8-92.2,1096.3-86.6 M831.7-83.6c-18,5-19.7,29.6-2.5,36.8c5,2.4,14.8,2.8,22.4-5.2
			C863.5-67.5,850.8-87.6,831.7-83.6 M109.9-79.7c-10.2,0.9-19.4,10.6-17,23.7c2.9,11,14.3,18.3,26.9,13.5
			C141-52.6,130.9-82.1,109.9-79.7 M595.4-72c-22.8,5.8-18.8,40.2,7.7,38.2C627.9-37.8,624.1-76.8,595.4-72 M704.2-67.6
			c-18.3,4.6-20.3,29.7-2.9,36.9c7.5,3.6,17.9,1,23.4-6.6C734.2-50.1,724.5-71,704.2-67.6 M503.9-64.6c-23.6,6.6-16.8,41.7,9.1,37.9
			C537.2-31.7,531.8-70,503.9-64.6 M-23.4-63.2c-25,7-16,43.3,9.4,37.8C9.7-32.3,3.5-67.3-23.4-63.2 M629-53
			c-0.3,14.3-9.6,25.3-23,28.4c36,175.5,16.5,92.7,33.6,128.5c5.5-3.5,53.3-34.1,59-37.4c-0.2-9,3.3-15.3,11.8-18.4
			c0-8.5,1-67.7,1-67.7c-19.2,1.1-33.8-14.7-31.1-33.6C671-53.3,649.7-53.3,629-53 M138.8-24.5c-6.5,2.6-5.4,11.6,0,13.5
			c5.6,2.3,10.7-5.8,6.4-11.4C143.7-24.4,141.1-25.1,138.8-24.5 M105.2-11.9C94.8-7.7,84.4-3.5,73.9,0.7
			c4.5,17.4-12.4,28.6-25.6,17.9c-19.2,32-10.5,13.5-5.8,30.3c19.8-2.2,39.6-4.8,59.4-6.9c0.9-0.2,2.3,0,2.7-1.1
			c3.8-8.6,10.1-10.5,18.5-9.7c5-10.9,9.9-21.8,15.1-32.6c-9.7-2.5-13.9-9.4-13.4-18.7C118.4-17.2,111.8-14.6,105.2-11.9 M948.8-19
			c-6.9,1.6-6.7,12.4,0,13.8c3.8,0.9,7.7-2.8,7.4-6.6C956.5-15.8,952.8-19.9,948.8-19 M1040.9-19.1c-5.5,1.7-6.9,8.6-2.6,12.5
			c3.5,3.1,9.4,1.1,10-5.3C1048.5-15.7,1044.9-19.9,1040.9-19.1 M182.9-15.1c-4.6,1.7-5.8,8.4-2.4,11.8c4.9,5.7,14.1-2.2,9.3-9.2
			C188.5-15,185.4-16,182.9-15.1 M155.7-13.3c-3,11-13.1,11.7-14.7,12.3c-2.1,4.2-11.1,24.6-15.3,33.2c11.9,7.2,13.3,23.1-1.3,30.8
			c1.3,6,2.2,12.1,3.1,18.2c10.9-1,18.1,7.1,18.1,16.7c14.3,1.8,50.3,6.8,67.4,9.2c7.5-14,25.9-11.5,29.8,3.9
			c6.6,0.6,13.2,0.7,19.7,1.5c-0.7-13.1,4.1-23.3,16-29.7c-1.5-1.4-83.1-77.4-84.1-77.8c-1.7,0.8-3.2,2-5.1,2.4
			c-9.1,3.1-21.1-3.5-20.1-18.1C164.7-11.7,160.2-12.5,155.7-13.3 M1004.7-2.8c0.4,6.3-2.4,13.1-8.2,16.2
			c-4.9,3.4,1.2-15.3-27.2,170.1c8.7,2.6,12.8,9.6,12.4,17.6c16.6,5.7,33.2,11.3,49.8,17.1c8.9-14.5,26-9.8,29.5,3.7
			c13.3-6.4,26.6-12.8,40-19.1c-14.1-21.2,3.6-49.2,29.3-44.7c7.3-30.9,14.5-61.7,21.9-92.6c-5.6-5.8-6.7-12.8-3.6-20.5
			c-30.6-17.1-61.2-34.1-91.7-51.1c-5.7,13.7-25,15-30.2-2.5C1019.3-6.6,1012-4.7,1004.7-2.8 M987.5-7.8c-7.2,2.1-5.6,13.3,0.8,13.8
			c3.8,0.4,7.1-3.3,6.9-7C995.4-5,991.5-8.9,987.5-7.8 M963.5-3.6c-6.2,9.3-16.6,9.6-22.9,4.6c-1.2-0.9-2.1-2.1-3.2-3
			c0,0-143.9,39.9-209.1,58c10.6,22-21.8,35.3-28.9,12.9c-19.5,12.6-39,25-58.6,37.5c2.3,7.9,2.4,16.2-2.6,24.8
			c3,2.3-7.7-6.9,70.4,62.4c8.7-5.9,20.4-6.6,29.8-2C750.3,183,817,136.8,827,130c-0.4-26.9,22-37.6,39.8-30.6
			c36-31,71.8-62.3,107.9-93.2c-1-2.5-1.5-5.2-1.6-7.8C969.9-2.3,966.7-2.9,963.5-3.6 M58-0.5c-4.1,1-6.3,6.1-4.5,9.9
			c1.1,3,5,5.1,8,3.4C68.8,9.3,64.5-2.2,58-0.5 M474.4-0.5c-8.8,2-5.9,15.5,2,13.9C484.4,11.2,482.2-1.6,474.4-0.5 M375.6,44.5
			c3.5,6.7,2.4,15.8-3.4,20.8c-6,5.7-17,5.1-21.9-1.7c-4.9,6.7-9.3,13.7-14.2,20.5c51,15.4,102.1,30.6,153,46
			c6.3-15.1,28.2-13,30.3,5.2c22-3.7,44.1-7.4,66.1-10.9c-2.2-9.9-0.6-10.7-0.9-13.8c-1.1-1.3,7,6-100.5-90.6
			C473.5,27,461,20,459.6,8.2C431.7,20.4,403.6,32.4,375.6,44.5 M869.3,100.6c15,8,20.5,27.4,10.1,42.7c23,22.5,51.7,51.6,53.7,52.9
			c3.4,0.8,8.5,1.1,13.1,8.8c1.4-0.6,2.8-1.2,4.2-1.8c-1.7-10.4,5.3-20.1,16-19.9c8.1-56,16.4-111.9,24.7-167.9
			c-4.6-0.1-9.6,0.3-15.2-7.1C940.4,39.2,904.8,69.8,869.3,100.6 M1243.3,36.9c-24.5,7.3-15.9,42.2,9.5,37.9
			C1277.4,68.5,1269.7,31.2,1243.3,36.9 M117.7,40.6c-6.7,2-5.7,12.8,0.8,13.6c4.1,0.6,7.3-3.6,7-7.4
			C125.5,43.1,121.5,39.4,117.7,40.6 M66.3,49.2c-27.5,3.4-22.8,1.9-23.5,4.6c-0.4,12-13.7,20.9-26.1,11.6C10.2,72.7,3.6,80-3,87.2
			c7.8,5.6,12.8,13,13.3,24.4c13.2-1.8,96.4-13,103.8-13.9c0.7-7.4,3.2-12.5,10.3-15.7c-1.1-6.1-1.9-12.2-2.8-18.3
			c-11.2,0.9-18.9-8-17.8-18.9C97.6,45.5,69.6,48.8,66.3,49.2 M25.6,46.2C19,47.9,19.5,59,26.4,59.8c4,0.7,7.2-3.3,7.1-7
			C33.6,48.8,29.7,44.8,25.6,46.2 M360.3,46.1c-8.2,2.9-4.3,16.2,3.6,13.4C371.8,56.3,367.4,43.7,360.3,46.1 M1160.9,46.1
			c-7.3,2.1-5.6,14.3,1.8,13.8c3.4-0.1,6-3.4,6-6.6C1169.1,49.2,1165.2,44.8,1160.9,46.1 M712.6,57.3c-6.9,2.7-5.3,13.2,1.3,13.8
			c4,0.4,7-3.8,6.7-7.5C720.5,59.7,716.6,55.9,712.6,57.3 M330.6,88.1c-4.8,1.9-9.7,3.7-14.5,5.5c9,15.5,2.7,34.4-13.1,41.6
			c5.7,8.8,11.4,17.7,17.2,26.5c2.9,0.9,139.7,37,140.3,37.1c3.1,0.5,7.3-2.7,15.5,2.8c8.4-16.2,16.7-32.4,25.2-48.5
			c-10.1-2.6-14.2-10.1-13.3-18.8c-1.1-1,9.4,2.5-154.3-46.7C332.7,87,331.7,87.7,330.6,88.1 M288.8,89.4
			c-11.2,0.4-21.3,15.2-15.2,27.3c5.4,11.9,19.8,13.3,25.8,9.7C319.3,117.4,311.7,86.9,288.8,89.4 M129,90.6
			c-7.6,2.1-6.4,12.3-0.4,13.8c4.4,1.1,8.3-3.8,7.4-7.9C135.7,93.2,132.4,90,129,90.6 M-19.1,92.2c-9.6-0.2-20.5,8.3-19.1,22.3
			c1.4,9.3,10.3,17,19.8,16.4c13.4,0.2,23.4-15.4,17.5-26.9C-3.9,97-11.3,91.8-19.1,92.2 M613,96.6c-10.4-0.2-19.8,9.5-19.2,19.9
			c-0.1,13.2,14.9,22.8,26.5,17.6c14-5.5,17.9-24.5,3.4-34.7C620.4,97.5,616.7,96.5,613,96.6 M853.3,107c-8.6,1-18.4,8.8-16.7,23
			c3.2,14,18.8,19.7,29.5,12.7C882.4,133.4,876.4,105,853.3,107 M226.5,107.3c-6.4,1.4-6.9,9.6-2.7,12.7c3.3,2.7,8.8,1.1,9.9-5.1
			C234,111.1,230.6,106.7,226.5,107.3 M243.1,114.2c-0.2,16.7-20.2,22.1-28.8,9.4c-16.8,6.4-156.9,59.1-172.8,65
			C44.8,203.8,37,218,22,223.2c12.9,21.3,25.9,42.5,38.8,63.8c9.6-0.2,18.1,2,25.1,10.4c15.3-8,30.6-16.1,45.9-24
			c-11.8-19,10.6-36,24.3-21.2c2.6-3.1,102.6-116.9,111.8-126.8C259.2,114.7,272.9,115.3,243.1,114.2 M257.1,140.9
			c-0.5,0.5-97.5,110.7-99.6,113.3c2.3,4,2.9,8.7,1.9,13.2c2.3,0.3,186.4,0.9,192.8,0.9c0.6-7.9,4.5-15.4,10.6-20.5
			c-7.2-13.5-53.4-99.3-63.6-111.1c-1.5-0.1-18,4.6-30.1-9.6C265.1,131.7,261.1,136.3,257.1,140.9 M568.4,130.4c0,0-48.6,8-48.8,8.1
			c-0.7,1.2-2.1,12.8-14,14.4c-1.7,0.1,0.5-3.9-27.5,50.7c6,6.8,5.4,18.1-2.3,24.5c12.6,5.8,24.9,12.3,37.5,18.1
			c12.9-33.2,55.2-24,57,7.1c10-2.2,121.4-26.9,126.9-27.9c-3.2-12.3,0.9-20.8,7.9-29c-0.5-0.5-61-54.4-69.5-61.6
			c-13.8,15.8-39.5,13.2-48.8-7.2C580.5,128,574.5,129.7,568.4,130.4 M501.9,129.9c-6.1,1.9-6,12.4,0.8,13.8
			c5.4,0.7,9.9-6.8,5.3-11.9C506.3,130.4,504.1,129.3,501.9,129.9 M812.9,143c-24,16.7-48.1,33.3-72.1,50
			c12.7,9,15.5,23.2,11.4,34.4c-1,2.9-2.7,5.5-4.3,8.1c34.2,5.7,68.4,11.1,102.6,16.8c4.3-9,15.1-13,24.7-5.7
			c14.5-8.5,28.8-17.2,43.4-25.6c-4.4-8.6-1.6-20,8.9-24c-16.9-16.9-33.9-33.7-50.8-50.5c-19.4,17.3-44.3,6.3-49-13.7
			C822.6,136,817.9,139.7,812.9,143 M322.9,166.3c3.4,6.5,37.5,68.7,43.2,79.1c13.5-7.5,29.1-4.1,38.1,7.4
			c0.5-0.2,45.3-20.2,54.4-23.7c-1.2-1.2-9.6-6.7-7.5-17.6c0.5-3.9,2.8-7.3,5.6-10C456.7,201.5,341.6,170.9,322.9,166.3
			 M1121.8,167.3c-16.7,2.5-22.8,24.6-8.2,35.1c9.2,6.7,23.8,4.3,29.5-8.6C1148.1,182.8,1139.9,165.6,1121.8,167.3 M8.5,176.5
			c-9.3,2.8-15.8,11.2-14.2,22.6c2.6,12.4,16.8,19.3,27.2,13.8C41.1,204.3,33.9,171.7,8.5,176.5 M964.4,193.1
			c-6.9,1.6-6.2,13.5,1.3,13.8c3.6,0.1,6.6-3.6,6.4-7.1C972.3,195.8,968.5,191.8,964.4,193.1 M720.4,198.5
			c-19.7,5.9-18.7,30.2-3.2,36.7c15,7.9,33.2-10.2,25.8-25.3C739.3,201.7,731.9,196.9,720.4,198.5 M980.9,205
			c-7,15.5-23.3,14.3-29.7,1.1c-1.3,0.5-2.6,1.1-3.9,1.6c3.9,18.9-15.7,28.5-27.3,15.6c-14.3,8.5-28.5,17-42.8,25.4
			c4.5,6.7,4.2,11.7,2,18.2c0.7,1,67.6,53.7,68.5,53.8c18.6-1.6,37.1-3.1,55.7-4.4c4-15.4,18-17.3,26.6-9.6c0.5-0.6,1-1.1,1.5-1.6
			c-5.9-8.2-4.4-22.4,8.7-26.6c2.5-12.1,5-24.2,7.5-36.3c-10.9,1.2-19.7-8.5-17.3-20.4C1013.8,216.2,997.4,210.6,980.9,205
			 M1094.5,209c-11.1,5.3-22,10.7-33.1,15.9c0.3,12.3-9.2,15.7-10.6,16.8c-2.5,12.1-4.9,24.2-7.5,36.3c7.1-0.1,17.1,5,16.3,19.3
			c4-0.6,14.4-1.2,48.8-3.7c-3.4-21.3,20.7-29,29.8-10.9c0.4-0.4,28.4-30.7,29.1-31.6c-11.5-4.8-14.3-15-9-25.3
			c-5.8-5.1-11.7-10.1-17.5-15.1c-22.7,13-37.1-5-38.3-5.5C1099.6,206.1,1097.1,207.7,1094.5,209 M931.6,205.8
			c-4.1,0.7-6.6,5.5-5.2,9.3c3.3,8.1,12.3,4.6,12.1-2.6C938.4,209,935.2,205.5,931.6,205.8 M464.7,207.9c-6.4,2.2-6.1,13.1,1.8,13.8
			c4.8,0,7.8-6.2,5.4-10.2C470.8,208.7,467.5,207,464.7,207.9 M1043.8,219.1c-6.6,2.3-5.7,12.5,0.8,13.6c4.1,0.7,7.6-3.6,7.1-7.5
			C1051.7,221.4,1047.7,217.7,1043.8,219.1 M674.3,233.3c-5.2,1.1-92.9,20.4-104.2,23c-0.9,15.1-15.6,30.8-37.7,25.4
			c-7.5,17.5-15.2,34.9-22.9,52.3c8.8,2.2,13,8.3,13.4,16.1c4.1-0.6,147.2-14.1,157.8-14.9c2-15.7,15.3-19.4,24.5-13.6
			c0.2-0.5,20.8-68.2,23.3-75.6c-14.3,0.4-24-4.5-30.6-17.9C690.1,229.7,682.3,231.8,674.3,233.3 M1169.7,228.3
			c-7.4,2.6-5.2,14.1,1.8,13.8C1181.3,241.5,1178.1,225.7,1169.7,228.3 M405.9,255.2c10.9,22.4-2.8,41.1-21.6,43.8
			c5.4,17.9,10.6,35.8,15.9,53.7c7.2,1.3,13,8.1,13,15.5c0.5-0.1,66.4-13.2,78.5-15.4c-1.5-8.7,3.7-17.4,15.1-19.1
			c18.4-41.7,19.7-45.4,23.5-53c-11.5-6.3-18.4-13-17.7-30.6c-3.4-1.6-40.7-19.6-40.7-19.6C452.8,232.5,480.6,222.2,405.9,255.2
			 M541,234.8c-10.1-0.2-19.3,8.8-19.2,18.9c-0.6,10.2,8.6,19.9,18.8,19.8c16,1.2,28.4-19.8,13.7-33.7
			C550.7,236.5,545.9,234.5,541,234.8 M742,240.7c-16.2,13.6-2-22-34.3,82.9c6.2,7.5,5.9,15.6,1.4,22.2c0.7,1.9,1.4,3.7,2.2,5.5
			c14.5-3.6,26.7,1.4,33.6,11.9c0.6,1.1,1.7,1.4,2.9,1.5c1.8,0.2,36.2,4.2,37.5,4.2c1.1-3.4,1.9-7.2,4.7-9.8
			c8.4-9.1,25.2-5.3,27,10.7c7.1-1.3,90.3-14.4,96.6-15.2c2.7-7.9,9.4-12.8,19.3-11.1c3.6-6.7,7.6-13.2,11.2-19.8
			c-22.4-17.9-45-35.5-67.5-53.2c-11.3,11.8-29.9,2.1-27.1-14.8c-1.3-0.5-98.3-16.1-104.2-17.1C743.9,238.7,743.1,240,742,240.7
			 M1258.5,239.3c-7.7,1.2-17.5,8-16.2,22.5c3.7,21.6,34.8,21.3,38.6,0.2C1282.3,248.7,1273.3,237.9,1258.5,239.3 M1174.8,251.1
			c-1.6,0.4-3.2,0.1-4.8,0.5c-7.9,8.3-26.4,28.6-29.7,32c-0.7,0.7-1.6,1.5-1.2,2.6c0.6,4-0.2,8.1-2.2,11.7
			c15.8,13,38.6,32.3,41.2,34c3.2,0.1,6.4,0.3,9.3,1.8c20.2-16.6,40.2-33.3,60.3-49.8c-11.2-6.9-15.7-17.1-14.9-28.2
			c-16-4-31.9-8.2-47.9-12.1C1182.5,247.3,1179,250.2,1174.8,251.1 M380.7,251c-22.6-0.6-29,36.9,1.4,38.9
			c14.4-1.1,22.4-16.6,16.7-27.5C395.8,255.5,388.4,250.7,380.7,251 M863.5,252.4c-6.6,1.8-6.4,12.5,0.4,13.9
			c3.3,1,9.7-4.8,6.2-10.7C869.1,253.2,866.1,251.7,863.5,252.4 M142.7,256.3c-7.7,1.9-5.5,15,2.2,13.6
			C153.7,268.7,150.7,254,142.7,256.3 M158.1,270.6c-4.8,9.4-16.4,11.8-24.5,4.8c-15.3,8.2-30.7,16.2-46,24.3
			c7.3,11.3,6.7,26.2-4.1,37.3c132.1,77.8,123.4,72.8,124.3,71.8c13.9-10.5,35.6-6.7,44,11.5c40.6-6.6,81.2-13.1,121.8-19.6
			c3.5-10.7,13.3-10,14.8-11.8c1.3-1.3,2.4-2.8,3.6-4.2c-17.5-9.9-10.8-30.5,4-32.2c-1-3.6-15.3-52.9-15.5-53.4
			c-15.1-0.2-27.8-12.1-28.5-28.1C289.7,271.2,172,270.5,158.1,270.6 M1121.7,282.3c-7,2.4-5.4,13.8,1.8,13.7
			c2.5,0.2,6.5-2.7,6.1-8.1C1129.3,284.3,1125.4,281,1121.7,282.3 M1042.8,287.7c-7.9,2.1-6.3,13.6,0.9,14c3.9,0,6.7-4.1,6.3-7.8
			C1049.8,290.3,1046.5,287.2,1042.8,287.7 M63.2,296.5c-9.7-0.3-21.1,8.6-18.9,23.4c6.1,24,39.1,17.5,38.6-3.5
			C83.7,305.8,73.8,295.9,63.2,296.5 M1058.6,300.4c-3.8,10.1-15.7,14-24.7,7.1c-1-1-1.7,0.4-2.4,1c3.7,5.1,4.4,12.1,1.7,17.7
			c24.7,24.5,49.4,49,74,73.5c7.7-16.7,29.9-11.3,30.4,6.3c6-3,11.9-6.2,18-8.9c-5.3-11.9,2.6-25.2,15.7-24.2c1.1-3,2.3-6,3.4-9
			c-12.9-6.7-13.7-22.5-1.5-30.3c-4.8-4.2-35.7-29.9-38.9-32.5c-9.4,7.5-20,4.4-24.7-4.7C1092.5,298,1075.5,298.9,1058.6,300.4
			 M1016.9,312.2c-5.9,2.4-5.4,11.5,0.5,13.3c5.8,1.7,10.1-5.6,6.8-10.7C1022.7,312.4,1019.5,311.1,1016.9,312.2 M1277.6,317.3
			c-7.9,1.2-17.4,8.3-16.3,22.1c1.3,9.2,10.1,16.9,19.5,16.5c10.3,0.4,19.8-9.1,19.4-19.4C1300.6,326.7,1291.9,315.8,1277.6,317.3
			 M996.1,319.9c-16.3,1.3-32.6,2.6-48.9,3.9c-4,6.9-7.8,13.9-11.8,20.8c13.7,7.7,12,28.2-5.2,31.6c0,5.4,1.3,29.1,1.2,32.2
			c11.1-1.2,18.6,7.1,18.4,17.1c17.6,5.2,35.1,10.6,52.7,15.9c11.1-25.4,48.4-24.2,55.5,6.4c11.9-2.1,23.9-3.8,35.9-5.8
			c2.6-10.3,10.9-14.6,19.2-12.9c1-2.5,2.2-4.9,3.4-7.3c-5.4-2.3-9.5-7.4-10.2-13.3c-0.9-5.7,10.1,5.5-75.4-78.6
			c-11.1,10.5-26.1,4.5-27.6-10.9C1000.8,319.6,998.5,319.6,996.1,319.9 M694.9,328.9c-6.1,1.9-6.2,11.9,0.4,13.5
			C706.1,344.1,704.2,325.8,694.9,328.9 M-46.9,330.5c-21.3,5.7-18.9,35,1.2,38.4C-14.1,372.4-16.6,323.9-46.9,330.5 M43.8,338.2
			c-4.8,1.9-9.4,4.2-14.2,6.1c3.7,11.3-3.4,22.9-16.4,22.6c4.4,40.4,8.7,80.8,12.9,121.3c11.9,3.1,14.8,13.4,12.8,21.2
			c48.4,17.6,96.8,35.3,145.3,52.9c5.6-3.9,8.2-3.3,12.7-3.4c0.1-0.5,19.5-82.5,23.5-98.6c-20.6-3.8-32.5-27.9-16.5-48.1
			c-0.5-0.3-122.9-72.2-123.9-72.5c-0.5,0.2-17.3,11.6-33.5-0.7C45.6,338.6,44.7,337.6,43.8,338.2 M667.3,339.5
			c-3,0.3-138.4,13.1-144.5,13.7c-0.8,3.7-2.6,7.1-5.1,9.9c0,0,81.4,75.2,81.4,75.2c7.4-13.7,25.4-12.7,29.9,3.9
			c0.1-0.1,67.2-47.5,67.3-47.5c-8.6-13.3-5-33,11.5-41.6c-0.6-1.3-1.1-2.5-1.7-3.8c-11.8,6.4-22.5,1-25-11
			C676.5,338.2,671.9,339.1,667.3,339.5 M1180,341.5c-8.2,0.5-7.9,14,0.3,14.1C1189,354.9,1187.9,341.3,1180,341.5 M14.3,343.4
			c-8.4,0.7-7.2,14.9,1,14C24.5,355.2,21.5,342.9,14.3,343.4 M506.3,343.5c-5.7,0.9-8.7,10.8,0.4,14c4.3,0.2,7.7-4.5,6.6-8.6
			C512.8,345.8,509.6,342.7,506.3,343.5 M927.2,352.9c-6.6,1.7-6.3,13.7,1.7,14C939,365.2,935,350.3,927.2,352.9 M445.1,365.1
			c-10.8,1.8-21.4,4.2-32.1,6.2c-1.9,10.5-10,14.5-16.7,14c-2.4,0-1.1-0.5-5.5,4.4c13.1,2.9,16.1,16.5,11.2,25c-1,1.9-2.7,3.3-4,5
			c0.7,1,34.5,38.4,35.1,38.9c10-8.7,26.5-2.1,26.2,13.6c13.4-2.3,124.8-19.7,139.1-21.9c-1.4-14.4,10,4.3-84.3-85.1
			c-7.3,3.5-17.9,1.1-21.7-9.6C476.5,358.9,460.8,361.9,445.1,365.1 M878.1,363.2c-7.3,1.3-57.9,9.1-61.3,9.6c-0.4,2-1,3.9-1.7,5.8
			c0.1,0.1,63.3,49.9,63.4,49.9c0.5-0.1,14.6-6.8,22,8c5.8-3.5,11.9-6.3,17.8-9.5c-0.2-7.9,2-14.4,10-17.8c-0.4-11-1-22.1-1.1-33.1
			c-10.3-2.2-14.7-9.3-14.2-18.5C901.4,359.5,889.8,361.5,878.1,363.2 M717,359.7c-21.8,3.1-22.2,39.5,6.2,38.5
			C746.1,397,746.9,356.2,717,359.7 M396.5,362.1c-7.3,1.6-6.7,12.2-0.6,13.6c5.1,1.5,9.5-4.8,7.2-9.3
			C402.2,363.8,399.5,361.5,396.5,362.1 M799.3,364.2c-2.4,0.8-3.8,3.1-4.4,5.4c-0.7,2.1,0.6,4.1,1.6,5.8c1.9,2.9,6.4,3.1,8.8,0.7
			C810,371.6,806.2,362.1,799.3,364.2 M747.6,368.1c5,15.5,0.6,29.2-15.9,37.9c4.4,4.9,58.7,66.5,62.4,70.7
			c14.7-19.5,43.6-14.2,51.2,7.7c10.4-9.4,20.5-19,31-28.3c-5.5-5.1-8.8-14.8-1.1-24.7c-2.2-2-61.8-49-62.3-49.4
			c-7,7.5-18.7,6.9-24.5-1.9c-1.6-2.3-2.1-5.1-2.8-7.7C784.9,372.4,754.6,369,747.6,368.1 M1246.6,375.8
			c-13.4,2.3-20.2,17.1-14.4,27.8c7.2,14.9,28.6,14.1,35.1-0.2C1273.7,392.4,1265.4,374.1,1246.6,375.8 M1167.8,382.7
			c-6.9,2.3-5.4,13.7,1.8,13.7c4.5,0,7.6-5.4,5.9-9.4C1174.5,383.9,1171,381.5,1167.8,382.7 M683.6,406.7
			c-0.2,0.2-54,38.2-54.2,38.4c-0.8,3.3-0.2,8.7-7.8,14.4c0,0,12.3,36.8,17,51.4c0.5,1.3,1.5,2.4,2.3,3.6
			c6.7-0.6,129.2-14.3,148.1-16c-0.8-6.1,0-12.3,2.7-17.8c-0.3-0.4-63.8-72.4-64.8-73.4c-1.8,0.1-3.5,0.7-5.3,0.6
			c-9.2,0.5-18.6-3.9-24-11.4C693.1,400,688.4,403.4,683.6,406.7 M387.2,399.4c-7.7,1.7-6,16.1,3.6,13.4
			C398.5,408.8,393.7,397.4,387.2,399.4 M1120.3,399.4c-6.9,1.9-6,12.9,0.8,13.7c3.9,0.5,7.1-3.4,6.9-7.1
			C1128.1,402.2,1124.2,398.3,1120.3,399.4 M354.4,406.8c-0.8,0.1-95.4,15.3-101.5,16.4c6,19.6-9.3,38.9-29.8,37.5
			c0,0-23.5,99.2-23.5,99.2c39.6,21.1-15.6,14,60.4,23.6c5.4-9.1,17-10.4,24.3-3.5c42.5-15.8,84.9-31.6,127.5-47.3
			c0.9-15.7,16.4-21.5,27-12.1c0.6-0.5,1.2-1,1.8-1.5c-11.9-9.8-7.7-22.3-1.6-27.3c2.1-1.9,4.9-2.7,7.4-3.9
			c-2.1-0.2-6.4,0.9-12.3-3.3c-3.8-2.5-9.8-12-3.7-22.6c-12.1-13.2-24-26.7-36.1-40c-1.3-0.1-11.2,3.3-17.5-4.9
			c-3.2-3.6-4-8.5-3.9-13.2C366.6,404.6,360.5,406,354.4,406.8 M222.1,412.6c-5.6,0.8-11.6,4.3-15.1,12.4
			c-5.4,11.6,5.1,27.2,18.9,26.2c5.9,0.2,15.2-3.9,18.5-14.8C246.7,423.1,237.5,411.1,222.1,412.6 M932.1,418.1
			c-5.7,2.4-5.5,10.1-1.1,12.9c6.9,4.4,13.3-7.7,5.9-12.3C935.6,417.6,933.7,417.6,932.1,418.1 M943.5,437.8
			c-7.2,5.9-20.2,4.4-24.5-8c-5.9,3-11.6,6.3-17.5,9.2c2.3,15.3-8.9,21.4-16.7,20.7c-2.5,0-4.6-1.4-6.9-2.1c0,0-26.7,24.6-32.1,29.4
			c0.4,3.2,0.9,6.5,0.4,9.8c-0.8,8.5-5.7,16.1-12.6,21c4.7,9,9.5,17.9,14.1,26.9c8.6-2.4,17.8,2,20.2,12.8
			c8.9-1.1,60.3-6.5,60.3-6.5c1.3-20.2,22.1-35.3,45.2-22.7c13.6-17,27.1-34.1,40.8-51c-11.8-8.5-15.7-18.6-13-32.3
			c-17.3-5.1-34.6-10.5-52-15.7C948,432.5,946.4,435.7,943.5,437.8 M1025.7,433.2c-9.8,1.9-18.2,11.8-15.4,23.8
			c3.9,13.6,18.4,18,28.2,12.5C1056.8,460.2,1049.7,430.3,1025.7,433.2 M884.5,436.6c-4.6,1.5-6.1,8-3,11.6c2.1,2.7,6.7,3,8.8,0.1
			C894.7,444.6,892,435.2,884.5,436.6 M611.6,438.6c-5.9,2.1-6,11.9,0.4,13.5c1.5,0.1,3.3,0.4,4.5-0.8
			C623.4,446.2,617.9,436.3,611.6,438.6 M1107.5,438.5c-7.3,2.6-4.7,14.4,2.3,13.7c4.6-0.2,7.2-6.2,5.2-10
			C1113.8,439.3,1110.4,437.6,1107.5,438.5 M1267.2,440.5c-8.7,1.5-17.5,9-16.2,22.8c2.4,10.4,11.7,16.2,18.9,15.8
			c14.3,0.8,24.6-15.9,18.1-27.5C1285.3,445.4,1278.5,439.5,1267.2,440.5 M1058.3,450.8c0.1,26.9-26.8,35.9-41.7,27.5
			c-43.4,54.2-40.8,50.8-40.9,51.6c7.4,7.4,12.2,15.2,10.1,28c6.8,2.5,13.7,5.1,20.5,7.6c7.3-9.7,21.6-8.7,27,2.8
			c0.5-0.2,56.2-18.8,64-21.1c0-2.9-1.1-11.9,7-17.3c3.9-2.8,9.1-3.2,13.7-1.9c6.7-7.7,13.6-15.2,20.6-22.6
			c-1.5-5.3-0.1-11.1,3.2-15.5c-7.6-10.5-15.4-20.9-23.1-31.4c-8.9,6.2-22.9,3.7-25.2-13.5C1081.8,447.1,1070,448.9,1058.3,450.8
			 M585.1,455.4c0,0-113.9,18-126.3,20.1c-1.4,4.8-4.8,9-9.4,11.1c-0.1,0.3-0.2,1-0.2,1.4c2.1,0.5,11.4,1.3,14.7,11.9
			c2.4,0.4,146,25.4,148.1,26c-0.8-13.5,9.4-22.1,21.7-17.9c-0.1-0.2-15.5-47-15.5-47c-8.3,2-14.5-1.1-18.6-7.8
			C594.7,453.8,589.9,454.7,585.1,455.4 M441.6,464.6c-7.2,2.5-4.9,13.8,1.8,13.6c4,0.1,6.9-4.4,6.1-8.1
			C449,466.5,445.3,463.3,441.6,464.6 M814,474.4c-10.2,2-17.8,11.9-15.5,23c3.1,11.2,12,16,19.8,15.5
			C843.6,513.1,843.7,470.4,814,474.4 M1151.6,494.5c-7.1,2.2-4.7,15,3,13.4c4.5-1,6.5-6.9,4.1-10.6
			C1157.4,494.8,1154.3,493.3,1151.6,494.5 M22.2,497.9c-7.9,2.3-5.1,15.5,2.6,13.8c4.3-0.9,6.4-6.5,4.3-10.2
			C28,498.9,24.9,496.9,22.2,497.9 M447,497.9c-6.5,2.3-5.8,12.6,0.8,13.6c3.7,1,6.9-2.6,7.1-6C455.7,501.2,451.4,496.4,447,497.9
			 M773.5,503c0,0-131.2,14.3-131.2,14.3c3.3,11.9-3.6,20.3-11.1,21.9c-1.8,0.7-0.6-8-8.3,84.6c-0.3,1.5,1.2,2.5,1.8,3.8
			c1.7,2.5,2.4,5.5,2.7,8.4c9.2,1.6,18.3,3.5,27.4,5.3c12.9-19.8,41.8-17.3,51.2,4c2.4-0.1,96.6-9.1,97.1-9.2
			c0.4-13.7,9.4-19.3,20-17.2c1.8-3.4,22.2-43.7,22.2-43.8c-9.9-5.7-12.4-20.1-1.2-28.8c-4.7-8.9-9.3-17.8-14-26.7
			c-19.8,7.6-36.2-2.9-40.5-18.5C784.3,501.5,779,502.6,773.5,503 M464.5,503.6c0,7.6-2.9,12-8,15.6
			c0.5,0.4,127.6,103.2,139.9,113.1c2.3-8.1,11.2-15.9,23.5-9.8c0.6-3,4-47.1,7.1-82.8c-5.8,0-10.8-3.9-13.4-8.8
			c-0.7-1.8-2.9-1.8-4.5-2.2C603.4,528,465.1,503.7,464.5,503.6 M1168.2,507.4c-6.2,13.4-23,13-29,0.3c-6.1,7.3-12.7,14.2-19,21.3
			c14.9,9.3,9,31.7-9,31.2c8.4,14,16.5,28.2,24.7,42.2c12.8-8,27.4,3,24.1,18.3c12.7,0.6,25.4,1.1,38.2,1.7
			c-0.3-15.8,17.3-22.7,27.3-11.9c0.3-0.2,23.4-18.5,23.6-18.8c-20.3-6.2-28-30.7-12.9-47.8C1213.5,531.8,1190.9,519.6,1168.2,507.4
			 M626.3,516.4c-8.1,2.2-5.4,15.4,2.5,13.8c4.9-1.2,6.8-8,3.4-11.6C631.1,516.5,628.4,516.1,626.3,516.4 M-36.7,519.9
			c-12.4,2-19.8,15.9-15.1,26.2c4.8,11.8,18.1,15.5,27.5,10.2C-6.4,546.9-12.6,517.5-36.7,519.9 M440.4,522.8
			c4.5,7.1,4.3,19.1-5.8,24.6c-0.3,2.3-2.7,47.4-3,54.2c9.2-0.2,13.8,5,16.7,12.8c1.8,0.8-4.6-1.2,105.3,31c8.8-13.2,25.7-10,29.4,5
			c4.7-2.5,9.4-5.1,14.1-7.5c-0.5-1.7-0.8-3.6-1.2-5.3c-0.9-0.9-79.6-64.6-80.1-65c-72.3-58.7-59-50.2-72.7-52.2
			C442,520.9,441.2,521.9,440.4,522.8 M426,525.9c-4,1-5.8,6.1-4.2,9.6c5.2,8.1,11.9,2.6,12-2.5C434.1,529,430.1,524.6,426,525.9
			 M953.7,533.2c-12.7,2.7-19.4,16.3-14.2,27.1c6.9,15.5,29.2,15.2,35.7-0.2C980.4,550.5,973.4,530.9,953.7,533.2 M286.3,582.4
			c3.2,5.9,2.7,7.3,2.8,12.7c18.8,10.1,37.4,20.5,56.2,30.6c8.2-11.2,23.6-9.4,28.4,4.7c50.8-18.6,42.7-14.7,44.7-18.6
			c1.7-4.6,5.6-8.1,10.2-9.6c1.1-17.8,1.8-35.7,3.1-53.5c-10.1,0.7-16.1-1.4-19.7-12.9C370,551.3,328.2,566.9,286.3,582.4
			 M1111,537.1c-5.3,1.9-6,10.8,0,13.4c7,1.3,9.6-5.8,7.4-9.9C1117.2,537.8,1113.9,536,1111,537.1 M1253.5,545
			c-9.9,2-17.2,10.8-15.7,22.6c1.6,9,10.2,16.3,19.4,15.9C1283.1,584.3,1283.9,541.2,1253.5,545 M1034.3,571.1
			c1.5,6.3-0.7,13.1-5.6,17.3c5.7,16.6,11.5,33.2,17.1,49.9c4.9,0.1,29.9-1.4,46-2.2c0.7-16.1,21.7-23.2,30.3-5.9
			c3.3-1.4,6.6-2.7,9.9-4.1c-4-6.2-3.9-14.9,0.8-20.7c-33.7-58-25.6-44.6-30.4-49.4c-2-1.6-3.1-4-4.3-6.2
			C1076.9,557.1,1055.5,563.9,1034.3,571.1 M850.8,553.8c-5.1,1.5-6.5,10.5-0.5,13.3c4.7,1.5,8.3-1.9,8.5-6.7
			C858.8,556.4,854.8,552.6,850.8,553.8 M905.6,556.3c-12.4,1.7-24.9,2.4-37.3,4.1c-0.4,11.3-9.9,18.6-20.3,15.8
			c-0.1,0.1-19,37.5-22.1,43.7c9.9,5.5,11.7,18.7,3.7,27.1c10,9.2,19.8,18.7,29.8,27.9c6.9-8.4,19-9.4,26.6,2.3
			c0,0,4.8,0.3,70.2,0.8c4.8-14,23.1-16,29.8-0.7c2.3-0.2,4.7-0.4,7-0.4c3.1-20.6,22.5-29.7,38.6-24.1c0.5-0.5,10.6-10.8,11.1-11.6
			c-5.7-16.9-11.6-33.9-17.4-50.8c-11.8,4.2-21.2-3.6-22.1-13.4c-0.3-2.8,0.4-5.5,1-8.2c-6.6-2.4-13.1-4.9-19.7-7.3
			c-12.1,30.9-54.4,22.6-56.3-7.7C920.8,554.7,913.2,555.6,905.6,556.3 M192.7,568.5c-4.2,0.9-6.3,6.3-4.5,10c1,2.4,3.6,3.5,5.8,4.5
			c2.3,1,4.1,3.3,6.8,3.2c3.5-0.1,5.9-3.4,6.4-6.6c0-6.9-6.1-7.1-8.3-8.8C197.1,569.4,195,567.8,192.7,568.5 M1017.9,568.5
			c-7.5,1.9-6.2,12.1-0.3,13.7c3.7,1,7.5-2.3,7.6-6C1025.8,572.1,1022.2,567.4,1017.9,568.5 M216.4,581
			c-1.6,13.1-15.6,18.3-24.7,11.6c-1.1-0.8-2.3-1.4-3.6-1.9c-16.2,19.3-32.6,38.3-48.8,57.5c9.9,7.5,11.2,19,1.4,28.2
			c30.2,11,60.3,22.2,90.5,33.3c0.5-0.4,16.4-20.3,39-6.9c26.6-18,53.1-35.9,79.7-53.8c-6.1-5-8.7-10.5-6.6-19.7
			c-4.2-2.1-55.1-30-55.6-30.3c-9.7,18.5-34.6,7.8-29.4-12.2C244.4,584.9,230.4,582.9,216.4,581 M271.1,585.6
			c-6.9,3.2-4.2,13.4,2.2,13.5c4.3-0.1,7.2-5,6-9C278.6,586.6,274.5,584.1,271.1,585.6 M1142.8,609.6c-6,2-5.5,12.4,0.9,13.5
			c5.3,1.1,9-5.7,6.6-10.1C1149.1,610.2,1145.7,608.5,1142.8,609.6 M430.8,611.5c-4.4,1.7-6.2,8.7-1.5,12.5c4.6,3.8,11.9-2,9-9
			C437.2,612.1,433.7,610.3,430.8,611.5 M1212.4,615.1c-7.6,2.2-5.5,14.3,1.7,13.7c4.5-0.1,7.2-5.7,5.4-9.5
			C1218.5,616.5,1215.4,614.1,1212.4,615.1 M374.1,633.3c-0.1,4.9-0.3,9.3-6,14.8c14.3,25.5,28.8,50.9,43.1,76.3
			c9-0.6,11.8,3.9,14.1,5.3c4.7-0.5,49.4-8.3,82.6-13.5c2-7.6,9.1-14.6,21.3-11.2c0.4-0.3,33.5-35.3,33.8-35.6
			c-7.5-2.6-12.7-9.8-10.7-20.5c-34.5-10-69-20.3-103.6-30.2c-1.6,21.1-30.5,21.9-31.5-1C402.7,622.8,388.5,628.1,374.1,633.3
			 M-36.7,621.3c-19.3,3.1-22.5,29.9-4.2,37.3c11.7,5.6,27.3-4.3,26.9-17.8C-13.5,631.1-22,619.8-36.7,621.3 M1158.1,624.9
			c-4.5,7.7-14.9,11.2-24.3,3.4c-3.6,1.6-7.2,3.2-10.8,4.7c0.8,7-0.6,12.4-6.3,17.3c4.9,12.4,9.7,24.8,14.6,37.2
			c13.6-6.2,24.6,2.8,23.8,16.6c1.4-0.1,47.1-1.7,53.6-1.5c0.4-7,2.7-12.1,9.1-15.7c0-0.2-8.4-48.8-8.4-49c-1.1-1-8-2.3-10.9-12.4
			C1171.3,625.2,1159.2,622.5,1158.1,624.9 M356.4,628.3c-6.6,2.4-5,13.3,1.8,13.6c4.8,0.4,7.8-5.5,6.1-9.6
			C363.2,629.2,359.5,627,356.4,628.3 M817,628.3c-4.4,1.6-5.6,7.7-2.8,11.2c3.9,5,11.5,1.5,10.9-5
			C825.1,630.4,820.9,626.9,817,628.3 M609.7,630.1c-8,3.4-3.5,15.7,3.5,13.4C620.7,641.3,619.1,628,609.7,630.1 M1105.5,630.1
			c-7.3,2.7-3.7,13.9,1.8,13.6C1116.3,644.6,1115.8,626.9,1105.5,630.1 M675.8,637.6c-13.1,2.7-19.5,17.1-14.2,27.1
			c4.3,9.9,17.2,15.4,28.5,8.3C706.6,662.5,698.9,634.7,675.8,637.6 M1047,641.5c-1.4-0.1-2.2,1.2-3.1,2c-3.1,3.6-6.7,6.8-9.9,10.3
			c21.4,11.4,21.4,36.7,5.5,49.4c8.6,7.9,17.4,15.7,26,23.6c6-9.8,19-10.9,26.3-1.6c11.3-5,22.5-10.4,33.9-15.1
			c-3.5-7.5-2.1-14.8,2.5-19.9c-5-12.6-10-25.3-14.8-37.9c-12.3,2.4-19.1-2.7-21.5-13.2C1077,640.1,1062,640.7,1047,641.5
			 M565.6,646.8c-3.6,1.2-5.5,5.6-4,9.1c1.1,3.5,5.7,5.9,8.9,3.6C576.6,655.9,573.4,644.7,565.6,646.8 M129.5,656.2
			c-6.2,2.6-5.2,13.2,1.7,13.5c3.9,0.5,7-3.8,6.6-7.4C137.9,658.3,133.5,654.3,129.5,656.2 M1018.3,661.1c-15,3-21.7,21.6-10.2,32.8
			c7.3,7.6,19.6,7.4,26.7,0.9C1048.5,683,1040.2,658.6,1018.3,661.1 M969.3,676.7c-5.4,1.8-5.7,10.2-0.9,12.8
			c5.7,3.7,12.7-5.9,6.7-11.6C973.7,676.4,971.3,676,969.3,676.7 M870.9,678.2c-7.7,2.3-5.9,12.9,0.3,13.7c3.9,0.7,7.3-3.3,7-7
			C878.4,681.1,874.7,677.3,870.9,678.2 M986.8,680.4c0.7,10.2-4.3,16.7-12.3,19c2.4,12.1,4.9,24.1,7.2,36.2
			c9.4-1.1,18.6,6.1,17.5,19.5c11.7,3.4,23.3,7,35,10.6c7.7-14.1,22.4-18.8,36.3-14.3c-0.8-6.1-8.3-5.2-6.5-20.5
			c-9.5-8.4-18.8-17-28.2-25.4c-20,10.5-43-4-42.8-25.6C991,680.1,988.9,680.2,986.8,680.4 M887.3,680.5
			c3.8,17.3-14.9,27.1-25.8,16.8c0,10.5-0.3,21.1-0.2,31.6c9.9,3.8,14.3,16.4,6.8,26.6c5,1.3,10,2.8,15,4.1
			c5.5-19,28.8-16.1,31.3,1.8c9.3-1.3,53-8.1,53.5-8.2c0-8.5,3.8-14,10.5-16.9c-2.7-13.1-7.3-36.7-7.3-36.7
			c-10.1-1.3-15.3-6.7-15.4-18.4C951.2,681.3,891.5,680.4,887.3,680.5 M92.3,682.2c-6.7,2.7-4.7,13.5,2.1,13.7
			c5-0.1,7.8-6.4,5.5-10.5C98.7,682.5,95.1,680.9,92.3,682.2 M44.2,687.4c-5.8,0.2-8.3,11.3-1.1,13.7c4,1.6,8.2-2.4,8.1-6.4
			C51.5,690.9,48.2,686.9,44.2,687.4 M1137,695.4c-6.7,3-3.7,14.9,3.6,13.4c3.4-0.7,5.5-4.4,5.1-7.8
			C1145.6,696.9,1140.9,693.5,1137,695.4 M1222.7,695.3c-6.1,1.6-6.1,12,0.9,13.5c5.6,0.9,9.8-7,5.2-12.1
			C1227.3,695,1224.7,694.5,1222.7,695.3 M251.4,708c-23.7,4-21.5,40.4,6.1,38.5C281.4,743.2,279.5,705.3,251.4,708 M522,713.5
			c-7.3,1.6-6.6,13.3,0.8,14c3.8,0.1,6.7-3.8,6.5-7.3C529.3,716.5,525.9,712.6,522,713.5 M1269.7,721.4c-13.1,2.8-19,16.1-14.5,26.3
			c8,20.2,38.1,13.4,37.6-6.9C1293.3,731,1284.8,719.5,1269.7,721.4 M-2.9,728.6c-23.8,3.8-21.5,40.4,6.1,38.5
			C26.9,763.8,25.4,726.5-2.9,728.6 M1077.2,728.7c-1.9,0.7-3.1,2.6-4,4.3c-1.4,7.1,4.8,11,8.9,8.4
			C1089,737.4,1084.3,726,1077.2,728.7 M411.7,734c-5.4,1.8-4.4,6.9-3.9,10c2.6,7.5,14.3,3,11.4-5.5
			C418.3,735.4,414.9,733.1,411.7,734 M854.2,737.9c-6.5,2.4-5.6,13.5,2.2,13.8c3.5-0.6,6.3-4,6-7.5
			C862.3,740.2,858.2,736.5,854.2,737.9 M982.1,745.2c-8.5,4.2-4.2,14.2,1.8,13.7c5.2-0.1,7.6-7.3,4.7-11.1
			C987,746,984.5,744.4,982.1,745.2 M897.8,756.2c-9.1,2.4-5.6,14.8,1.2,14C907.6,769.2,906.1,755.2,897.8,756.2 M1057,759.5
			c-12.4,2.1-20.5,16.1-14.5,27.5c6.8,15,28.6,14.7,35.2,0.2C1084,776.1,1075.8,757.8,1057,759.5 M691.5,761.1
			c-15.2,4-20.2,21.2-10.7,31.8c9.8,11.2,27.3,7.8,32.6-4.9C719.2,777,710.8,758.6,691.5,761.1 M147.2,767.1
			c-7.8,1.8-15.9,9.1-14.8,22c3.3,21.3,34.5,22,38.6,0.6C172.5,774.1,161.1,764.6,147.2,767.1 M561.6,766.8
			c-19.1,2.7-22.8,30.1-3.9,37.4c10,4.6,23.8-2.2,26.3-14.4C585.6,776.3,576.8,765.6,561.6,766.8 M827.7,777.1
			c-15,2.6-21.7,20.5-11.6,31.9c12.4,14,34.6,4.2,34.3-12.5C850.8,787.4,843.2,775.8,827.7,777.1 M936.4,804.4
			c0.9,9.6,9.9,17.7,19.6,17.2c20.2,0.6,27.2-28.3,8-37C953.9,779.2,935.3,785.8,936.4,804.4z"/>
	</g>
	<g>
		<path class="st1" d="M1285.6,499.2c-1.7-8.6-4-17.3-6.9-26.1c-21-62.2-73.3-128.3-149.1-190.8c-1.9,1.6-3.7,3.3-5.4,5.1
			c-0.7,0.7-1.4,1.4-2,2.1c75.5,63.5,126,130.5,142.7,193c2.3,8.6,4,17.1,5,25.4c2.7,22.1,0.8,43.4-6.1,63.6
			c-52.1,153.1-370.5,183.2-711.1,67.3C211.9,522.8-22,304.7,30.1,151.5C82.2-1.6,400.7-31.7,741.3,84.3
			c143.8,49,268.6,116.1,360.9,189c1.2-1.3,2.3-2.5,3.6-3.7c1.2-1.2,2.3-2.3,3.5-3.4C1015,193,888.9,125.7,744,76.4
			C393.6-42.9,66.1-11.9,12.5,145.5c-53.6,157.5,187,381.8,537.3,501.1c350.4,119.3,677.9,88.3,731.5-69.2
			C1289.7,552.8,1290.9,526.5,1285.6,499.2z"/>
		<g>
			<path class="st2" d="M1285.6,499.2c-1.7-8.6-4-17.3-6.9-26.1c-21-62.2-73.3-128.3-149.1-190.8c-1.9,1.6-3.7,3.3-5.4,5.1
				c-0.7,0.7-1.4,1.4-2,2.1c75.5,63.5,126,130.5,142.7,193c2.3,8.6,4,17.1,5,25.4c2.7,22.1,0.8,43.4-6.1,63.6
				c-52.1,153.1-370.5,183.2-711.1,67.3C211.9,522.8-22,304.7,30.1,151.5C82.2-1.6,400.7-31.7,741.3,84.3
				c143.8,49,268.6,116.1,360.9,189c1.2-1.3,2.3-2.5,3.6-3.7c1.2-1.2,2.3-2.3,3.5-3.4C1015,193,888.9,125.7,744,76.4
				C393.6-42.9,66.1-11.9,12.5,145.5c-53.6,157.5,187,381.8,537.3,501.1c350.4,119.3,677.9,88.3,731.5-69.2
				C1289.7,552.8,1290.9,526.5,1285.6,499.2z"/>
			<path d="M1129.5,282.3c-1.9,1.6-3.7,3.3-5.4,5.1c-0.7,0.7-1.4,1.4-2,2.1c-6.5-5.5-13.1-10.9-19.9-16.2c1.2-1.3,2.3-2.5,3.6-3.7
				c1.2-1.2,2.3-2.3,3.5-3.4C1116.2,271.4,1122.9,276.8,1129.5,282.3z"/>
		</g>
	</g>
</g>
<g id="In">
	<path d="M445.4,229.6v293L239.6,287.5v230.8h-25.4V223.5L420,457V229.6H445.4z"/>
	<path d="M117.9,105.9v412.4H81.6V105.9H117.9z"/>
</g>
</svg>
